NotoSerifEthiopic-Bold.ufo
<glyph name="ra-ethiopic" format="2">
  <advance width="602"/>
  <unicode hex="1228"/>
  <note>
uni1228
</note>
  <anchor x="303" y="721" name="top"/>
  <outline>
    <contour>
      <point x="508" y="-88" type="curve" smooth="yes"/>
      <point x="532" y="-88"/>
      <point x="554" y="-84"/>
      <point x="567" y="-76" type="curve"/>
      <point x="546" y="-53"/>
      <point x="531" y="-12"/>
      <point x="531" y="34" type="curve" smooth="yes"/>
      <point x="531" y="80"/>
      <point x="546" y="120"/>
      <point x="567" y="143" type="curve"/>
      <point x="554" y="150"/>
      <point x="532" y="155"/>
      <point x="508" y="155" type="curve" smooth="yes"/>
      <point x="440" y="155"/>
      <point x="407" y="113"/>
      <point x="395" y="67" type="curve"/>
      <point x="334" y="67" type="line"/>
      <point x="334" y="0" type="line"/>
      <point x="395" y="0" type="line"/>
      <point x="407" y="-46"/>
      <point x="440" y="-88"/>
    </contour>
    <component base="nose"/>
  </outline>
</glyph>
<glyph name="ree-ethiopic" format="2">
  <advance width="759"/>
  <unicode hex="122C"/>
  <note>
uni122C
</note>
  <anchor x="389" y="721" name="top"/>
  <outline>
    <contour>
      <point x="338" y="0" type="line"/>
      <point x="503" y="0" type="line"/>
      <point x="503" y="20" type="line"/>
      <point x="420" y="67" type="line"/>
      <point x="338" y="67" type="line"/>
    </contour>
    <component base="nose"/>
    <component base="ballbig" xOffset="259" yOffset="-151"/>
  </outline>
</glyph>
<glyph name="sha-ethiopic" format="2">
  <advance width="740"/>
  <unicode hex="1238"/>
  <note>
uni1238
</note>
  <anchor x="370" y="848" name="top"/>
  <outline>
    <contour>
      <point x="287" y="566" type="line"/>
      <point x="457" y="566" type="line"/>
      <point x="457" y="734" type="line"/>
      <point x="287" y="734" type="line"/>
    </contour>
    <component base="shortnarch" xOffset="20"/>
    <component base="bonemiddle" xOffset="40" yOffset="14"/>
  </outline>
</glyph>
<glyph name="shaa-ethiopic" format="2">
  <advance width="733"/>
  <unicode hex="123B"/>
  <note>
uni123B
</note>
  <anchor x="361" y="848" name="top"/>
  <outline>
    <contour>
      <point x="276" y="566" type="line"/>
      <point x="446" y="566" type="line"/>
      <point x="446" y="734" type="line"/>
      <point x="276" y="734" type="line"/>
    </contour>
    <component base="bonemiddle" xOffset="30" yOffset="14"/>
    <component base="baashort" xOffset="32"/>
  </outline>
</glyph>
<glyph name="qhi-ethiopic" format="2">
  <advance width="740"/>
  <unicode hex="1252"/>
  <note>
uni1252
</note>
  <anchor x="370" y="848" name="top"/>
  <outline>
    <contour>
      <point x="286" y="0" type="curve"/>
      <point x="528" y="0" type="line"/>
      <point x="528" y="67" type="line"/>
      <point x="487" y="67"/>
      <point x="469" y="81"/>
      <point x="469" y="140" type="curve"/>
      <point x="469" y="720" type="line"/>
      <point x="269" y="720" type="line"/>
      <point x="269" y="98" type="line" smooth="yes"/>
      <point x="269" y="50"/>
      <point x="274" y="20"/>
    </contour>
    <component base="midring" xOffset="10" yOffset="41"/>
    <component base="bonemiddle" xOffset="39" yOffset="14"/>
    <component base="rightdoubleflag" xOffset="432"/>
  </outline>
</glyph>
<glyph name="qhwee-ethiopic" format="2">
  <advance width="761"/>
  <unicode hex="125C"/>
  <note>
uni125C
</note>
  <anchor x="380" y="848" name="top"/>
  <outline>
    <contour>
      <point x="237" y="0" type="line"/>
      <point x="446" y="0" type="line"/>
      <point x="446" y="67" type="line"/>
      <point x="237" y="67" type="line"/>
    </contour>
    <component base="qhee-ethiopic" xOffset="10"/>
    <component base="leftsingleflag" xOffset="31" yOffset="-352"/>
  </outline>
</glyph>
<glyph name="wu-ethiopic" format="2">
  <advance width="1021"/>
  <unicode hex="12C9"/>
  <note>
uni12C9
</note>
  <anchor x="521" y="714" name="top"/>
  <outline>
    <contour>
      <point x="463" y="202" type="line"/>
      <point x="814" y="202" type="line"/>
      <point x="814" y="269" type="line"/>
      <point x="463" y="269" type="line"/>
    </contour>
    <component base="wa-ethiopic"/>
    <component base="rightdoubleflag" xOffset="728" yOffset="202"/>
  </outline>
</glyph>
<glyph name="za-ethiopic" format="2">
  <advance width="811"/>
  <unicode hex="12D8"/>
  <note>
uni12D8
</note>
  <anchor x="405" y="721" name="top"/>
  <outline>
    <contour>
      <point x="279" y="334" type="line"/>
      <point x="557" y="334" type="line"/>
      <point x="557" y="401" type="line"/>
      <point x="279" y="401" type="line"/>
    </contour>
    <component base="stem1" xOffset="396"/>
    <component base="stem1"/>
  </outline>
</glyph>
<glyph name="dee-ethiopic" format="2">
  <advance width="833"/>
  <unicode hex="12F4"/>
  <note>
uni12F4
</note>
  <anchor x="411" y="724" name="top"/>
  <outline>
    <contour>
      <point x="191" y="188" type="line"/>
      <point x="547" y="188" type="line"/>
      <point x="623" y="255" type="line"/>
      <point x="191" y="255" type="line"/>
    </contour>
    <component base="ballsmall" xOffset="405" yOffset="-161"/>
    <component base="leftsingleflag" yOffset="-164"/>
    <component base="upperloop" xOffset="3"/>
  </outline>
</glyph>
<glyph name="ddwa-ethiopic" format="2">
  <advance width="986"/>
  <unicode hex="12FF"/>
  <note>
uni12FF
</note>
  <anchor x="488" y="830" name="top"/>
  <outline>
    <contour>
      <point x="346" y="694" type="line"/>
      <point x="524" y="694" type="line"/>
      <point x="524" y="830" type="line"/>
      <point x="346" y="830" type="line"/>
    </contour>
    <component base="dwa-ethiopic"/>
  </outline>
</glyph>
<glyph name="jee-ethiopic" format="2">
  <advance width="952"/>
  <unicode hex="1304"/>
  <note>
uni1304
</note>
  <anchor x="471" y="848" name="top"/>
  <outline>
    <contour>
      <point x="208" y="188" type="line"/>
      <point x="600" y="188" type="line"/>
      <point x="717" y="255" type="line"/>
      <point x="208" y="255" type="line"/>
    </contour>
    <contour>
      <point x="362" y="581" type="line"/>
      <point x="542" y="581" type="line"/>
      <point x="542" y="744" type="line"/>
      <point x="362" y="744" type="line"/>
    </contour>
    <component base="ballsmall" xOffset="524" yOffset="-161"/>
    <component base="leftsingleflag" yOffset="-164"/>
    <component base="bonelong" xOffset="80" yOffset="14"/>
    <component base="upperloopsmall" xOffset="147"/>
  </outline>
</glyph>
<glyph name="phaa-ethiopic" format="2">
  <advance width="774"/>
  <unicode hex="1333"/>
  <note>
uni1333
</note>
  <anchor x="399" y="815" name="top"/>
  <outline>
    <contour>
      <point x="282" y="671" type="line"/>
      <point x="470" y="671" type="line"/>
      <point x="470" y="815" type="line"/>
      <point x="282" y="815" type="line"/>
    </contour>
    <component base="tsaa-ethiopic"/>
  </outline>
</glyph>
<glyph name="phee-ethiopic" format="2">
  <advance width="965"/>
  <unicode hex="1334"/>
  <note>
uni1334
</note>
  <anchor x="497" y="815" name="top"/>
  <outline>
    <contour>
      <point x="282" y="671" type="line"/>
      <point x="470" y="671" type="line"/>
      <point x="470" y="815" type="line"/>
      <point x="282" y="815" type="line"/>
    </contour>
    <component base="tsee-ethiopic"/>
  </outline>
</glyph>
<glyph name="tza-ethiopic" format="2">
  <advance width="694"/>
  <unicode hex="1340"/>
  <note>
uni1340
</note>
  <anchor x="347" y="725" name="top"/>
  <outline>
    <contour>
      <point x="206" y="327" type="line"/>
      <point x="457" y="327" type="line"/>
      <point x="457" y="395" type="line"/>
      <point x="206" y="395" type="line"/>
    </contour>
    <component base="aPharyngeal-ethiopic"/>
  </outline>
</glyph>
<glyph name="tze-ethiopic" format="2">
  <advance width="694"/>
  <unicode hex="1345"/>
  <note>
uni1345
</note>
  <anchor x="347" y="760" name="top"/>
  <outline>
    <contour>
      <point x="226" y="271" type="line"/>
      <point x="477" y="271" type="line"/>
      <point x="477" y="339" type="line"/>
      <point x="226" y="339" type="line"/>
    </contour>
    <component base="ePharyngeal-ethiopic"/>
  </outline>
</glyph>
<glyph name="tzo-ethiopic" format="2">
  <advance width="631"/>
  <unicode hex="1346"/>
  <note>
uni1346
</note>
  <anchor x="323" y="714" name="top"/>
  <outline>
    <contour>
      <point x="208" y="491" type="line"/>
      <point x="480" y="491" type="line"/>
      <point x="480" y="558" type="line"/>
      <point x="208" y="558" type="line"/>
    </contour>
    <component base="oPharyngeal-ethiopic"/>
  </outline>
</glyph>
<glyph name="pwa-ethiopic" format="2">
  <advance width="690"/>
  <unicode hex="1357"/>
  <note>
uni1357
</note>
  <anchor x="345" y="714" name="top"/>
  <outline>
    <contour>
      <point x="275" y="0" type="curve"/>
      <point x="510" y="0" type="line"/>
      <point x="510" y="67" type="line"/>
      <point x="492" y="67" type="line" smooth="yes"/>
      <point x="468" y="67"/>
      <point x="446" y="89"/>
      <point x="446" y="132" type="curve" smooth="yes"/>
      <point x="446" y="680" type="line"/>
      <point x="246" y="680" type="line"/>
      <point x="246" y="78" type="line" smooth="yes"/>
      <point x="246" y="40"/>
      <point x="257" y="17"/>
    </contour>
    <component base="footmiddle" yOffset="647"/>
    <component base="footmiddle" xOffset="4"/>
  </outline>
</glyph>
<glyph name="comma-ethiopic" format="2">
  <advance width="392"/>
  <unicode hex="1363"/>
  <note>
uni1363
</note>
  <outline>
    <contour>
      <point x="27" y="578" type="line"/>
      <point x="366" y="578" type="line"/>
      <point x="366" y="727" type="line"/>
      <point x="27" y="727" type="line"/>
    </contour>
    <component base="yizet-ethiopic" xOffset="66" yOffset="62"/>
    <component base="yizet-ethiopic" xOffset="66" yOffset="321"/>
  </outline>
</glyph>
<glyph name="semicolon-ethiopic" format="2">
  <advance width="392"/>
  <unicode hex="1364"/>
  <note>
uni1364
</note>
  <outline>
    <contour>
      <point x="27" y="644" type="line"/>
      <point x="366" y="644" type="line"/>
      <point x="366" y="793" type="line"/>
      <point x="27" y="793" type="line"/>
    </contour>
    <contour>
      <point x="27" y="-37" type="line"/>
      <point x="366" y="-37" type="line"/>
      <point x="366" y="112" type="line"/>
      <point x="27" y="112" type="line"/>
    </contour>
    <component base="yizet-ethiopic" xOffset="65" yOffset="159"/>
    <component base="yizet-ethiopic" xOffset="65" yOffset="402"/>
  </outline>
</glyph>
<glyph name="colon-ethiopic" format="2">
  <advance width="392"/>
  <unicode hex="1365"/>
  <note>
uni1365
</note>
  <outline>
    <contour>
      <point x="27" y="280" type="line"/>
      <point x="366" y="280" type="line"/>
      <point x="366" y="429" type="line"/>
      <point x="27" y="429" type="line"/>
    </contour>
    <component base="yizet-ethiopic" xOffset="66" yOffset="30"/>
    <component base="yizet-ethiopic" xOffset="66" yOffset="467"/>
  </outline>
</glyph>
<glyph name="pwee-ethiopic" format="2">
  <advance width="738"/>
  <unicode hex="138E"/>
  <note>
uni138E
</note>
  <anchor x="364" y="714" name="top"/>
  <outline>
    <contour>
      <point x="235" y="0" type="line"/>
      <point x="431" y="0" type="line"/>
      <point x="431" y="67" type="line"/>
      <point x="235" y="67" type="line"/>
    </contour>
    <component base="pee-ethiopic"/>
    <component base="leftsingleflag" xOffset="20" yOffset="-352"/>
  </outline>
</glyph>
<glyph name="hidet-ethiopic" format="2">
  <advance width="888"/>
  <unicode hex="1397"/>
  <note>
uni1397
</note>
  <outline>
    <contour>
      <point x="39" y="0" type="line"/>
      <point x="849" y="0" type="line"/>
      <point x="849" y="136" type="line"/>
      <point x="39" y="136" type="line"/>
    </contour>
  </outline>
</glyph>
<glyph name="deretHidet-ethiopic" format="2">
  <advance width="859"/>
  <unicode hex="1398"/>
  <note>
uni1398
</note>
  <outline>
    <contour>
      <point x="234" y="0" type="line"/>
      <point x="819" y="0" type="line"/>
      <point x="819" y="136" type="line"/>
      <point x="234" y="136" type="line"/>
    </contour>
    <component base="deret-ethiopic"/>
  </outline>
</glyph>
<glyph name="moa-ethiopic" format="2">
  <advance width="1143"/>
  <unicode hex="2D81"/>
  <note>
uni2D81
</note>
  <anchor x="566" y="714" name="top"/>
  <outline>
    <contour>
      <point x="250" y="80" type="line"/>
      <point x="427" y="80" type="line"/>
      <point x="427" y="147" type="line"/>
      <point x="250" y="147" type="line"/>
    </contour>
    <component base="mo-ethiopic" xOffset="38"/>
    <component base="leftdoubleflag" yOffset="80"/>
  </outline>
</glyph>
<glyph name="shoa-ethiopic" format="2">
  <advance width="848"/>
  <unicode hex="2D84"/>
  <note>
uni2D84
</note>
  <anchor x="415" y="848" name="top"/>
  <outline>
    <contour>
      <point x="427" y="566" type="line"/>
      <point x="597" y="566" type="line"/>
      <point x="597" y="734" type="line"/>
      <point x="427" y="734" type="line"/>
    </contour>
    <component base="boshort" xOffset="165"/>
    <component base="bonemiddle" xOffset="182" yOffset="14"/>
    <component base="leftdoubleflag" xOffset="-10" yOffset="288"/>
  </outline>
</glyph>
<glyph name="poa-ethiopic" format="2">
  <advance width="885"/>
  <unicode hex="2D92"/>
  <note>
uni2D92
</note>
  <anchor x="442" y="714" name="top"/>
  <outline>
    <contour>
      <point x="271" y="280" type="line"/>
      <point x="397" y="280" type="line"/>
      <point x="437" y="347" type="line"/>
      <point x="271" y="347" type="line"/>
    </contour>
    <component base="po-ethiopic" xOffset="174"/>
    <component base="leftdoubleflag" yOffset="280"/>
  </outline>
</glyph>
<glyph name="ggwee-ethiopic" format="2">
  <advance width="848"/>
  <unicode hex="2D95"/>
  <note>
uni2D95
</note>
  <anchor x="424" y="802" name="top"/>
  <outline>
    <contour>
      <point x="244" y="0" type="line"/>
      <point x="465" y="0" type="line"/>
      <point x="465" y="67" type="line"/>
      <point x="244" y="67" type="line"/>
    </contour>
    <component base="ggee-ethiopic"/>
    <component base="leftsingleflag" xOffset="3" yOffset="-352"/>
  </outline>
</glyph>
<glyph name="qyi-ethiopic" format="2">
  <advance width="749"/>
  <unicode hex="2DC2"/>
  <note>
uni2DC2
</note>
  <anchor x="374" y="760" name="top"/>
  <outline>
    <contour>
      <point x="299" y="0" type="curve"/>
      <point x="499" y="0" type="line"/>
      <point x="499" y="67" type="line"/>
      <point x="468" y="67"/>
      <point x="450" y="80"/>
      <point x="450" y="134" type="curve" smooth="yes"/>
      <point x="450" y="616" type="line"/>
      <point x="270" y="616" type="line"/>
      <point x="270" y="78" type="line" smooth="yes"/>
      <point x="270" y="40"/>
      <point x="281" y="17"/>
    </contour>
    <component base="rightdoubleflag" xOffset="456"/>
    <component base="midring" yOffset="-30"/>
    <component base="winghatshort" xOffset="78"/>
  </outline>
</glyph>
<glyph name="tthu-ethiopic" format="2">
  <advance width="871"/>
  <unicode hex="AB01"/>
  <note>
uniAB01
</note>
  <anchor x="463" y="767" name="top"/>
  <outline>
    <contour>
      <point x="155" y="272" type="line"/>
      <point x="578" y="272" type="line"/>
      <point x="578" y="339" type="line"/>
      <point x="155" y="339" type="line"/>
    </contour>
    <component base="su-ethiopic"/>
  </outline>
</glyph>
<glyph name="tthe-ethiopic" format="2">
  <advance width="693"/>
  <unicode hex="AB05"/>
  <note>
uniAB05
</note>
  <anchor x="363" y="764" name="top"/>
  <outline>
    <contour>
      <point x="172" y="257" type="line"/>
      <point x="525" y="257" type="line"/>
      <point x="525" y="322" type="line"/>
      <point x="172" y="322" type="line"/>
    </contour>
    <component base="se-ethiopic"/>
  </outline>
</glyph>
<glyph name="ttho-ethiopic" format="2">
  <advance width="683"/>
  <unicode hex="AB06"/>
  <note>
uniAB06
</note>
  <anchor x="364" y="767" name="top"/>
  <outline>
    <contour>
      <point x="169" y="296" type="line"/>
      <point x="522" y="296" type="line"/>
      <point x="522" y="368" type="line"/>
      <point x="169" y="368" type="line"/>
    </contour>
    <component base="so-ethiopic"/>
  </outline>
</glyph>
<glyph name="ddhee-ethiopic" format="2">
  <advance width="833"/>
  <unicode hex="AB0C"/>
  <note>
uniAB0C
</note>
  <anchor x="411" y="790" name="top"/>
  <outline>
    <contour>
      <point x="315" y="524" type="line"/>
      <point x="538" y="524" type="line"/>
      <point x="538" y="595" type="line"/>
      <point x="315" y="595" type="line"/>
    </contour>
    <component base="ddee-ethiopic"/>
  </outline>
</glyph>
<glyph name="ddhe-ethiopic" format="2">
  <advance width="825"/>
  <unicode hex="AB0D"/>
  <note>
uniAB0D
</note>
  <anchor x="412" y="830" name="top"/>
  <outline>
    <contour>
      <point x="256" y="498" type="line"/>
      <point x="479" y="498" type="line"/>
      <point x="479" y="569" type="line"/>
      <point x="256" y="569" type="line"/>
    </contour>
    <component base="dde-ethiopic"/>
  </outline>
</glyph>
<glyph name="cchhee-ethiopic" format="2">
  <advance width="1731"/>
  <unicode hex="AB24"/>
  <note>
uniAB24
</note>
  <anchor x="883" y="848" name="top"/>
  <outline>
    <contour>
      <point x="1034" y="468" type="line"/>
      <point x="1207" y="468" type="line"/>
      <point x="1207" y="535" type="line"/>
      <point x="1034" y="535" type="line"/>
    </contour>
    <component base="cchha-ethiopic"/>
    <component base="rightbulbsmall" xOffset="1177" yOffset="144"/>
  </outline>
</glyph>
<glyph name="eightMed-ethiopic" format="2">
  <advance width="694"/>
  <note>
uni1370
</note>
  <outline>
    <contour>
      <point x="-20" y="736" type="line"/>
      <point x="714" y="736" type="line"/>
      <point x="714" y="803" type="line"/>
      <point x="-20" y="803" type="line"/>
    </contour>
    <contour>
      <point x="-20" y="0" type="line"/>
      <point x="714" y="0" type="line"/>
      <point x="714" y="67" type="line"/>
      <point x="-20" y="67" type="line"/>
    </contour>
    <component base="eightform" xOffset="3"/>
  </outline>
</glyph>
<glyph name="eightyIni-ethiopic" format="2">
  <advance width="850"/>
  <note>
uni1379
</note>
  <outline>
    <contour>
      <point x="200" y="736" type="line"/>
      <point x="870" y="736" type="line"/>
      <point x="870" y="803" type="line"/>
      <point x="200" y="803" type="line"/>
    </contour>
    <contour>
      <point x="200" y="0" type="line"/>
      <point x="870" y="0" type="line"/>
      <point x="870" y="67" type="line"/>
      <point x="200" y="67" type="line"/>
    </contour>
    <component base="eightyform"/>
    <component base="leftsingleflag" xOffset="10" yOffset="384"/>
    <component base="leftsingleflag" yOffset="-352"/>
  </outline>
</glyph>
<glyph name="eightyMed-ethiopic" format="2">
  <advance width="850"/>
  <note>
uni1379
</note>
  <outline>
    <contour>
      <point x="-20" y="736" type="line"/>
      <point x="870" y="736" type="line"/>
      <point x="870" y="803" type="line"/>
      <point x="-20" y="803" type="line"/>
    </contour>
    <contour>
      <point x="-20" y="0" type="line"/>
      <point x="870" y="0" type="line"/>
      <point x="870" y="67" type="line"/>
      <point x="-20" y="67" type="line"/>
    </contour>
    <component base="eightyform"/>
  </outline>
</glyph>
<glyph name="fortyIni-ethiopic" format="2">
  <advance width="682"/>
  <note>
uni1375
</note>
  <outline>
    <contour>
      <point x="187" y="736" type="line"/>
      <point x="702" y="736" type="line"/>
      <point x="702" y="803" type="line"/>
      <point x="187" y="803" type="line"/>
    </contour>
    <contour>
      <point x="187" y="0" type="line"/>
      <point x="702" y="0" type="line"/>
      <point x="702" y="67" type="line"/>
      <point x="187" y="67" type="line"/>
    </contour>
    <component base="fortyform" xOffset="-13"/>
    <component base="leftsingleflag" yOffset="384"/>
    <component base="leftsingleflag" yOffset="-352"/>
  </outline>
</glyph>
<glyph name="numeral_medi" format="2">
  <advance width="579"/>
  <outline>
    <contour>
      <point x="-20" y="736" type="line"/>
      <point x="599" y="736" type="line"/>
      <point x="599" y="803" type="line"/>
      <point x="-20" y="803" type="line"/>
    </contour>
    <contour>
      <point x="-20" y="0" type="line"/>
      <point x="599" y="0" type="line"/>
      <point x="599" y="67" type="line"/>
      <point x="-20" y="67" type="line"/>
    </contour>
  </outline>
</glyph>
<glyph name="sixtyMed-ethiopic" format="2">
  <advance width="714"/>
  <note>
uni1377
</note>
  <outline>
    <contour>
      <point x="-20" y="736" type="line"/>
      <point x="734" y="736" type="line"/>
      <point x="734" y="803" type="line"/>
      <point x="-20" y="803" type="line"/>
    </contour>
    <contour>
      <point x="-20" y="0" type="line"/>
      <point x="734" y="0" type="line"/>
      <point x="734" y="67" type="line"/>
      <point x="-20" y="67" type="line"/>
    </contour>
    <component base="sixtyform" xOffset="10"/>
  </outline>
</glyph>
<glyph name="tenIni-ethiopic" format="2">
  <advance width="500"/>
  <note>
uni1372
</note>
  <outline>
    <contour>
      <point x="191" y="736" type="line"/>
      <point x="520" y="736" type="line"/>
      <point x="520" y="803" type="line"/>
      <point x="191" y="803" type="line"/>
    </contour>
    <contour>
      <point x="191" y="0" type="line"/>
      <point x="520" y="0" type="line"/>
      <point x="520" y="67" type="line"/>
      <point x="191" y="67" type="line"/>
    </contour>
    <component base="tenform" xOffset="164"/>
    <component base="leftsingleflag" xOffset="10" yOffset="384"/>
    <component base="leftsingleflag" yOffset="-352"/>
  </outline>
</glyph>
<glyph name="tenMed-ethiopic" format="2">
  <advance width="469"/>
  <note>
uni1372
</note>
  <outline>
    <contour>
      <point x="-20" y="736" type="line"/>
      <point x="489" y="736" type="line"/>
      <point x="489" y="803" type="line"/>
      <point x="-20" y="803" type="line"/>
    </contour>
    <contour>
      <point x="-20" y="0" type="line"/>
      <point x="489" y="0" type="line"/>
      <point x="489" y="67" type="line"/>
      <point x="-20" y="67" type="line"/>
    </contour>
    <component base="tenform" xOffset="83"/>
  </outline>
</glyph>
<glyph name="tenthousandIni-ethiopic" format="2">
  <advance width="819"/>
  <note>
uni137C
</note>
  <outline>
    <contour>
      <point x="200" y="736" type="line"/>
      <point x="824" y="736" type="line"/>
      <point x="824" y="803" type="line"/>
      <point x="200" y="803" type="line"/>
    </contour>
    <contour>
      <point x="200" y="0" type="line"/>
      <point x="824" y="0" type="line"/>
      <point x="824" y="67" type="line"/>
      <point x="200" y="67" type="line"/>
    </contour>
    <component base="tenthousandform" xOffset="-23"/>
    <component base="leftsingleflag" yOffset="384"/>
    <component base="leftsingleflag" yOffset="-352"/>
  </outline>
</glyph>
<glyph name="thirtyMed-ethiopic" format="2">
  <advance width="732"/>
  <note>
uni1374
</note>
  <outline>
    <contour>
      <point x="-20" y="736" type="line"/>
      <point x="752" y="736" type="line"/>
      <point x="752" y="803" type="line"/>
      <point x="-20" y="803" type="line"/>
    </contour>
    <contour>
      <point x="-20" y="0" type="line"/>
      <point x="752" y="0" type="line"/>
      <point x="752" y="67" type="line"/>
      <point x="-20" y="67" type="line"/>
    </contour>
    <component base="thirtyform" xOffset="-4"/>
  </outline>
</glyph>
<glyph name="twentyIni-ethiopic" format="2">
  <advance width="706"/>
  <note>
uni1373
</note>
  <outline>
    <contour>
      <point x="244" y="736" type="line"/>
      <point x="726" y="736" type="line"/>
      <point x="726" y="803" type="line"/>
      <point x="244" y="803" type="line"/>
    </contour>
    <contour>
      <point x="244" y="0" type="line"/>
      <point x="726" y="0" type="line"/>
      <point x="726" y="67" type="line"/>
      <point x="244" y="67" type="line"/>
    </contour>
    <component base="twentyform" xOffset="3"/>
    <component base="leftsingleflag" xOffset="10" yOffset="384"/>
    <component base="leftsingleflag" yOffset="-352"/>
  </outline>
</glyph>
